<svg id="Capa_1" enable-background="new 0 0 512 512" height="512" viewBox="0 0 512 512" width="512" xmlns="http://www.w3.org/2000/svg"><g><path d="m256 31c-139.169 0-218.145 63.856-224.39 180h448.78c-6.245-116.144-85.221-180-224.39-180zm-90 150c-8.284 0-15-6.716-15-15 0-8.286 6.716-15 15-15s15 6.714 15 15c0 8.284-6.716 15-15 15zm60-60c-8.284 0-15-6.716-15-15 0-8.286 6.716-15 15-15s15 6.714 15 15c0 8.284-6.716 15-15 15zm60 30c-8.284 0-15-6.716-15-15 0-8.286 6.716-15 15-15s15 6.714 15 15c0 8.284-6.716 15-15 15zm60 30c-8.284 0-15-6.716-15-15 0-8.286 6.716-15 15-15s15 6.714 15 15c0 8.284-6.716 15-15 15z"/><path d="m512 316c0 8.399-6.599 15-15 15h-61c-23.401 0-33.6 11.7-41.1 20.099-6 6.601-9 9.901-18.9 9.901s-12.9-3.3-18.9-9.901c-7.5-8.399-17.699-20.099-41.1-20.099s-33.6 11.7-41.1 20.099c-6 6.601-9 9.901-18.9 9.901s-12.9-3.3-18.9-9.901c-7.5-8.399-17.699-20.099-41.1-20.099s-33.6 11.7-41.1 20.099c-6 6.601-9 9.901-18.9 9.901s-12.9-3.3-18.9-9.901c-7.5-8.399-17.699-20.099-41.1-20.099h-61c-8.401 0-15-6.601-15-15 0-8.401 6.599-15 15-15h482c8.401 0 15 6.599 15 15z"/><path d="m512 256c0 8.399-6.599 15-15 15h-482c-8.401 0-15-6.601-15-15 0-8.401 6.599-15 15-15h482c8.401 0 15 6.599 15 15z"/><path d="m436 361c-9.727 0-12.275 2.871-18.486 9.8-7.559 8.335-18.34 20.2-41.514 20.2s-33.955-11.865-41.074-19.702c-6.651-7.427-9.199-10.298-18.926-10.298s-12.275 2.871-18.486 9.8c-7.559 8.335-18.34 20.2-41.514 20.2s-33.955-11.865-41.074-19.702c-6.651-7.427-9.199-10.298-18.926-10.298s-12.275 2.871-18.486 9.8c-7.559 8.335-18.34 20.2-41.514 20.2s-33.955-11.865-41.074-19.702c-6.651-7.427-9.199-10.298-18.926-10.298h-43.484c7.573 67.315 64.177 120 133.484 120h180c69.307 0 125.911-52.685 133.484-120z"/></g></svg>